<mxfile host="Electron" agent="Mozilla/5.0 (Windows NT 10.0; Win64; x64) AppleWebKit/537.36 (KHTML, like Gecko) draw.io/24.7.17 Chrome/128.0.6613.36 Electron/32.0.1 Safari/537.36" version="24.7.17">
  <diagram name="Page-1" id="SOZ-3gTZ7dy5hkpgAGwo">
    <mxGraphModel dx="1034" dy="519" grid="1" gridSize="10" guides="1" tooltips="1" connect="1" arrows="1" fold="1" page="1" pageScale="1" pageWidth="827" pageHeight="1169" math="0" shadow="0">
      <root>
        <mxCell id="0" />
        <mxCell id="1" parent="0" />
        <mxCell id="WD9S4uCtZoY2GVXjpwlo-3" value="" style="whiteSpace=wrap;html=1;aspect=fixed;strokeColor=#000099;" vertex="1" parent="1">
          <mxGeometry x="190" y="20" width="610" height="610" as="geometry" />
        </mxCell>
        <mxCell id="WD9S4uCtZoY2GVXjpwlo-8" value="" style="endArrow=none;html=1;rounded=0;entryX=1.002;entryY=0.097;entryDx=0;entryDy=0;entryPerimeter=0;exitX=0.007;exitY=0.089;exitDx=0;exitDy=0;exitPerimeter=0;" edge="1" parent="1" target="WD9S4uCtZoY2GVXjpwlo-3">
          <mxGeometry width="50" height="50" relative="1" as="geometry">
            <mxPoint x="192.60999999999996" y="80" as="sourcePoint" />
            <mxPoint x="767.3900000000001" y="81.15999999999997" as="targetPoint" />
          </mxGeometry>
        </mxCell>
        <mxCell id="WD9S4uCtZoY2GVXjpwlo-16" value="&lt;h2&gt;&lt;font style=&quot;font-size: 18px;&quot;&gt;Welcome to the Future of Transportation&lt;/font&gt;&lt;/h2&gt;&lt;div&gt;&lt;font style=&quot;font-size: 14px;&quot;&gt;Discover the benefits of Electric and Plug-in Hybrid Vehicles. Drive green, drive smart.&lt;/font&gt;&lt;br&gt;&lt;div&gt;&lt;br&gt;&lt;/div&gt;&lt;/div&gt;" style="rounded=1;whiteSpace=wrap;html=1;" vertex="1" parent="1">
          <mxGeometry x="260" y="220" width="480" height="250" as="geometry" />
        </mxCell>
        <mxCell id="WD9S4uCtZoY2GVXjpwlo-17" value="Learn More" style="rounded=1;whiteSpace=wrap;html=1;fillColor=#FFFF66;" vertex="1" parent="1">
          <mxGeometry x="427.5" y="390" width="145" height="40" as="geometry" />
        </mxCell>
        <mxCell id="WD9S4uCtZoY2GVXjpwlo-20" value="&#xa;Â© 2025 EV Future | All Rights Reserved&#xa;&#xa;" style="rounded=0;whiteSpace=wrap;html=1;fillColor=#99CCFF;strokeColor=#3333FF;" vertex="1" parent="1">
          <mxGeometry x="190" y="550" width="580" height="50" as="geometry" />
        </mxCell>
        <mxCell id="WD9S4uCtZoY2GVXjpwlo-21" value="Logo" style="rounded=1;whiteSpace=wrap;html=1;fillColor=#FF66FF;" vertex="1" parent="1">
          <mxGeometry x="210" y="27.5" width="90" height="35" as="geometry" />
        </mxCell>
        <mxCell id="WD9S4uCtZoY2GVXjpwlo-23" value="Home" style="rounded=1;whiteSpace=wrap;html=1;fillColor=#00FFFF;" vertex="1" parent="1">
          <mxGeometry x="390" y="30" width="66" height="40" as="geometry" />
        </mxCell>
        <mxCell id="WD9S4uCtZoY2GVXjpwlo-24" value="About Us" style="rounded=1;whiteSpace=wrap;html=1;fillColor=#00FFFF;" vertex="1" parent="1">
          <mxGeometry x="470" y="30" width="70" height="40" as="geometry" />
        </mxCell>
        <mxCell id="WD9S4uCtZoY2GVXjpwlo-25" value="EV &amp;amp; PHEV" style="rounded=1;whiteSpace=wrap;html=1;fillColor=#00FFFF;" vertex="1" parent="1">
          <mxGeometry x="550" y="30" width="70" height="40" as="geometry" />
        </mxCell>
        <mxCell id="WD9S4uCtZoY2GVXjpwlo-26" value="Contact Us" style="rounded=1;whiteSpace=wrap;html=1;fillColor=#33FFFF;" vertex="1" parent="1">
          <mxGeometry x="630" y="30" width="70" height="37.5" as="geometry" />
        </mxCell>
        <mxCell id="WD9S4uCtZoY2GVXjpwlo-27" value="Login" style="rounded=1;whiteSpace=wrap;html=1;fillColor=#00FFFF;" vertex="1" parent="1">
          <mxGeometry x="710" y="30" width="70" height="37.5" as="geometry" />
        </mxCell>
      </root>
    </mxGraphModel>
  </diagram>
</mxfile>
